<?xml version="1.0" encoding="UTF-8"?>
<!DOCTYPE svg PUBLIC "-//W3C//DTD SVG 1.1//EN" "http://www.w3.org/Graphics/SVG/1.1/DTD/svg11.dtd">
<svg xmlns="http://www.w3.org/2000/svg" version="1.1" width="512px" height="512px" style="shape-rendering:geometricPrecision; text-rendering:geometricPrecision; image-rendering:optimizeQuality; fill-rule:evenodd; clip-rule:evenodd" xmlns:xlink="http://www.w3.org/1999/xlink">
<g><path style="opacity:0.982" fill="#fcfcfc" d="M 233.5,87.5 C 307.506,81.7524 364.006,110.086 403,172.5C 428.249,220.469 431.249,269.802 412,320.5C 386.041,377.445 342.208,411.611 280.5,423C 204.363,430.181 146.53,401.348 107,336.5C 86.2339,296.001 81.5672,253.667 93,209.5C 115.798,141.036 162.631,100.369 233.5,87.5 Z"/></g>
<g><path style="opacity:1" fill="#3f3f3f" d="M 237.5,90.5 C 249.186,90.1678 260.852,90.5011 272.5,91.5C 248.5,124.5 224.5,157.5 200.5,190.5C 192.24,164.052 183.573,137.719 174.5,111.5C 194.259,100.321 215.259,93.3214 237.5,90.5 Z"/></g>
<g><path style="opacity:1" fill="#3f3f3f" d="M 290.5,226.5 C 284.175,225.834 277.675,225.5 271,225.5C 264.131,225.503 257.631,226.17 251.5,227.5C 237.861,289.694 224.861,352.027 212.5,414.5C 167.061,402.223 132.895,375.556 110,334.5C 86.6209,287.512 84.2876,239.512 103,190.5C 112.325,169.518 125.158,151.018 141.5,135C 142.332,134.312 142.998,134.479 143.5,135.5C 153.932,165.629 164.265,195.796 174.5,226C 167.921,254.729 161.921,283.562 156.5,312.5C 169.5,312.5 182.5,312.5 195.5,312.5C 200.921,282.893 207.421,253.559 215,224.5C 247.358,182.976 279.525,141.309 311.5,99.5C 369.3,122.466 404.967,164.3 418.5,225C 403.833,225.333 389.167,225.667 374.5,226C 339.306,261.194 304.14,296.36 269,331.5C 268.333,329.833 268.333,328.167 269,326.5C 276.494,293.188 283.661,259.854 290.5,226.5 Z"/></g>
<g><path style="opacity:1" fill="#b0b0b0" d="M 290.5,226.5 C 277.421,226.186 264.421,226.52 251.5,227.5C 257.631,226.17 264.131,225.503 271,225.5C 277.675,225.5 284.175,225.834 290.5,226.5 Z"/></g>
<g><path style="opacity:1" fill="#3f3f3f" d="M 417.5,227.5 C 426.994,289.838 407.994,342.005 360.5,384C 355.638,387.695 350.638,391.195 345.5,394.5C 332.848,375.876 320.681,356.876 309,337.5C 308.333,336.167 308.333,334.833 309,333.5C 345.671,298.662 381.838,263.329 417.5,227.5 Z"/></g>
<g><path style="opacity:1" fill="#3f3f3f" d="M 266.5,335.5 C 282.098,359.816 297.431,384.482 312.5,409.5C 304.252,414.319 295.252,417.153 285.5,418C 273.601,420.163 261.601,420.996 249.5,420.5C 255.293,392.201 260.96,363.868 266.5,335.5 Z"/></g>
</svg>
